<?xml version="1.0"?>
<svg xmlns="http://www.w3.org/2000/svg" xmlns:xlink="http://www.w3.org/1999/xlink" version="1.1" id="Layer_1" x="0px" y="0px" viewBox="0 0 512 512" style="enable-background:new 0 0 512 512;" xml:space="preserve" width="36px" height="36px"><g><g>
	<g>
		<g>
			<path d="M315.989,332.8c4.71,0,8.533-3.823,8.533-8.533s-3.823-8.533-8.533-8.533h-0.094c-4.71,0-8.482,3.823-8.482,8.533     S311.27,332.8,315.989,332.8z" data-original="#000000" class="active-path" fill="#000000"/>
			<path d="M128.256,264.533h-0.094c-4.71,0-8.482,3.823-8.482,8.533s3.857,8.533,8.576,8.533c4.71,0,8.533-3.823,8.533-8.533     S132.966,264.533,128.256,264.533z" data-original="#000000" class="active-path" fill="#000000"/>
			<path d="M162.389,145.067h-0.094c-4.71,0-8.482,3.823-8.482,8.533c0,4.71,3.857,8.533,8.576,8.533     c4.71,0,8.533-3.823,8.533-8.533C170.923,148.89,167.1,145.067,162.389,145.067z" data-original="#000000" class="active-path" fill="#000000"/>
			<path d="M128.256,332.8h-0.094c-4.71,0-8.482,3.823-8.482,8.533s3.857,8.533,8.576,8.533c4.71,0,8.533-3.823,8.533-8.533     S132.966,332.8,128.256,332.8z" data-original="#000000" class="active-path" fill="#000000"/>
			<path d="M111.189,196.267h-0.094c-4.71,0-8.482,3.823-8.482,8.533s3.857,8.533,8.576,8.533c4.71,0,8.533-3.823,8.533-8.533     S115.9,196.267,111.189,196.267z" data-original="#000000" class="active-path" fill="#000000"/>
			<path d="M196.523,315.733h-0.094c-4.71,0-8.482,3.823-8.482,8.533s3.857,8.533,8.576,8.533c4.71,0,8.533-3.823,8.533-8.533     S201.233,315.733,196.523,315.733z" data-original="#000000" class="active-path" fill="#000000"/>
			<path d="M281.856,281.6c4.71,0,8.533-3.823,8.533-8.533s-3.823-8.533-8.533-8.533h-0.094c-4.71,0-8.482,3.823-8.482,8.533     S277.137,281.6,281.856,281.6z" data-original="#000000" class="active-path" fill="#000000"/>
			<path d="M196.523,213.333h-0.094c-4.71,0-8.482,3.823-8.482,8.533s3.857,8.533,8.576,8.533c4.71,0,8.533-3.823,8.533-8.533     S201.233,213.333,196.523,213.333z" data-original="#000000" class="active-path" fill="#000000"/>
			<path d="M482.253,86.554c-1.826-1.101-47.343-26.82-277.453-26.82c-85.606,0-169.583,24.9-173.116,25.958     c-0.478,0.145-0.93,0.324-1.374,0.538C10.761,96.009,0,113.869,0,136.533c0,20.608,14.677,37.845,34.133,41.805v248.329     c0,14.114,11.477,25.6,25.6,25.6h290.133c14.114,0,25.6-11.486,25.6-25.6V178.338c19.447-3.959,34.133-21.197,34.133-41.805     c0-22.665-10.769-40.525-30.319-50.304c-0.444-0.213-0.896-0.393-1.365-0.538c-0.708-0.213-4.804-1.417-11.366-3.157     c84.924,7.194,106.889,18.637,107.494,18.97c13.662,6.827,20.89,18.944,20.89,35.029c0,14.114-11.486,25.6-25.6,25.6h-42.667     c-4.719,0-8.533,3.823-8.533,8.533c0,4.71,3.814,8.533,8.533,8.533H460.8v247.467c0,4.702-3.831,8.533-8.533,8.533h-59.733     c-4.719,0-8.533,3.823-8.533,8.533s3.814,8.533,8.533,8.533h59.733c14.114,0,25.6-11.486,25.6-25.6V178.338     C497.314,174.379,512,157.141,512,136.533C512,113.869,501.231,96.009,482.253,86.554z M372.301,101.837     c13.235,6.886,20.233,18.867,20.233,34.697c0,14.114-11.486,25.6-25.6,25.6c-4.719,0-8.533,3.823-8.533,8.533v256     c0,4.702-3.831,8.533-8.533,8.533H59.733c-4.71,0-8.533-3.831-8.533-8.533v-256c0-4.71-3.823-8.533-8.533-8.533     c-14.123,0-25.6-11.486-25.6-25.6c0-15.829,6.989-27.81,20.233-34.697C45.679,99.396,125.833,76.8,204.8,76.8     S363.913,99.396,372.301,101.837z" data-original="#000000" class="active-path" fill="#000000"/>
			<path d="M247.723,401.067c4.71,0,8.533-3.823,8.533-8.533S252.433,384,247.723,384h-0.094c-4.71,0-8.482,3.823-8.482,8.533     S243.004,401.067,247.723,401.067z" data-original="#000000" class="active-path" fill="#000000"/>
			<path d="M264.789,196.267c4.71,0,8.533-3.823,8.533-8.533s-3.823-8.533-8.533-8.533h-0.094c-4.71,0-8.482,3.823-8.482,8.533     S260.07,196.267,264.789,196.267z" data-original="#000000" class="active-path" fill="#000000"/>
		</g>
	</g>
</g></g> </svg>
